{"asset":{"generator":"3D Builder","version":"2.0"},"scene":0,"scenes":[{"nodes":[0]}],"nodes":[{"mesh":0,"matrix":[1,0,0,0,0,-1.1920928955078125E-7,-0.99999988079071045,0,0,0.99999988079071045,-1.1920928955078125E-7,0,-0.0029628763440996408,0.095802009105682373,-8.6071049736347049E-6,1]}],"meshes":[{"primitives":[{"attributes":{"POSITION":0,"COLOR_0":1},"mode":4,"indices":2}]}],"accessors":[{"bufferView":0,"byteOffset":0,"count":51854,"componentType":5126,"type":"VEC3","min":[-0.1635848730802536,-0.0051127211190760136,-0.095802024006843567],"max":[0.16951063275337219,0.0050955298356711864,0.0999690592288971]},{"bufferView":1,"byteOffset":0,"count":51854,"componentType":5121,"type":"VEC4","normalized":true},{"bufferView":2,"byteOffset":0,"count":311112,"componentType":5125,"type":"SCALAR"}],"bufferViews":[{"buffer":0,"byteOffset":0,"byteLength":622248,"byteStride":12,"target":34962},{"buffer":0,"byteOffset":622248,"byteLength":207416,"byteStride":4,"target":34962},{"buffer":0,"byteOffset":829664,"byteLength":1244448,"target":34963}],"buffers":[{"byteLength":2074112,"uri":"blue_tang.bin"}]}