{"asset":{"generator":"3D Builder","version":"2.0"},"scene":0,"scenes":[{"nodes":[0]}],"nodes":[{"mesh":0,"matrix":[1,0,0,0,0,-1.1920928955078125E-7,-0.99999988079071045,0,0,0.99999988079071045,-1.1920928955078125E-7,0,0.0037874747067689896,0.098088935017585754,3.980217115895357E-7,1]}],"meshes":[{"primitives":[{"attributes":{"POSITION":0,"COLOR_0":1},"mode":4,"indices":2}]}],"accessors":[{"bufferView":0,"byteOffset":0,"count":62853,"componentType":5126,"type":"VEC3","min":[-0.13892722129821777,-0.0050064185634255409,-0.098088949918746948],"max":[0.13135227560997009,0.0050072381272912025,0.10322568565607071]},{"bufferView":1,"byteOffset":0,"count":62853,"componentType":5121,"type":"VEC4","normalized":true},{"bufferView":2,"byteOffset":0,"count":377106,"componentType":5125,"type":"SCALAR"}],"bufferViews":[{"buffer":0,"byteOffset":0,"byteLength":754236,"byteStride":12,"target":34962},{"buffer":0,"byteOffset":754236,"byteLength":251412,"byteStride":4,"target":34962},{"buffer":0,"byteOffset":1005648,"byteLength":1508424,"target":34963}],"buffers":[{"byteLength":2514072,"uri":"clownfish.bin"}]}