{"asset":{"generator":"3D Builder","version":"2.0"},"scene":0,"scenes":[{"nodes":[0]}],"nodes":[{"mesh":0,"matrix":[1,0,0,0,0,-1.1920928955078125E-7,-0.99999988079071045,0,0,0.99999988079071045,-1.1920928955078125E-7,0,0.012522103264927864,0.078089244663715363,-5.9312895928087528E-7,1]}],"meshes":[{"primitives":[{"attributes":{"POSITION":0,"COLOR_0":1},"mode":4,"indices":2}]}],"accessors":[{"bufferView":0,"byteOffset":0,"count":48135,"componentType":5126,"type":"VEC3","min":[-0.13840918242931366,-0.0050385710783302784,-0.078089252114295959],"max":[0.11336497962474823,0.0050374031998217106,0.075372427701950073]},{"bufferView":1,"byteOffset":0,"count":48135,"componentType":5121,"type":"VEC4","normalized":true},{"bufferView":2,"byteOffset":0,"count":288798,"componentType":5125,"type":"SCALAR"}],"bufferViews":[{"buffer":0,"byteOffset":0,"byteLength":577620,"byteStride":12,"target":34962},{"buffer":0,"byteOffset":577620,"byteLength":192540,"byteStride":4,"target":34962},{"buffer":0,"byteOffset":770160,"byteLength":1155192,"target":34963}],"buffers":[{"byteLength":1925352,"uri":"fish.bin"}]}