{"asset":{"generator":"3D Builder","version":"2.0"},"scene":0,"scenes":[{"nodes":[0]}],"nodes":[{"mesh":0,"matrix":[1,0,0,0,0,-1.1920928955078125E-7,-0.99999988079071045,0,0,0.99999988079071045,-1.1920928955078125E-7,0,0,9.3132246359317605E-10,-4.731129030211001E-11,1]}],"meshes":[{"primitives":[{"attributes":{"POSITION":0,"COLOR_0":1},"mode":4,"indices":2}]}],"accessors":[{"bufferView":0,"byteOffset":0,"count":57039,"componentType":5126,"type":"VEC3","min":[-0.019624773412942886,-0.00099770398810505867,-9.3132257461547852E-10],"max":[0.019624773412942886,0.00099770387168973684,0.029939334839582443]},{"bufferView":1,"byteOffset":0,"count":57039,"componentType":5121,"type":"VEC4","normalized":true},{"bufferView":2,"byteOffset":0,"count":342222,"componentType":5125,"type":"SCALAR"}],"bufferViews":[{"buffer":0,"byteOffset":0,"byteLength":684468,"byteStride":12,"target":34962},{"buffer":0,"byteOffset":684468,"byteLength":228156,"byteStride":4,"target":34962},{"buffer":0,"byteOffset":912624,"byteLength":1368888,"target":34963}],"buffers":[{"byteLength":2281512,"uri":"fish1.bin"}]}