{"asset":{"generator":"3D Builder","version":"2.0"},"scene":0,"scenes":[{"nodes":[0]}],"nodes":[{"mesh":0,"matrix":[1,0,0,0,0,-1.1920928955078125E-7,-0.99999988079071045,0,0,0.99999988079071045,-1.1920928955078125E-7,0,0.00859000626951456,0.11627978086471558,-1.8625702068675309E-5,1]}],"meshes":[{"primitives":[{"attributes":{"POSITION":0,"COLOR_0":1},"mode":4,"indices":2}]}],"accessors":[{"bufferView":0,"byteOffset":0,"count":59624,"componentType":5126,"type":"VEC3","min":[-0.10123967379331589,-0.0050904611125588417,-0.11627979576587677],"max":[0.084059655666351318,0.005053237546235323,0.097725704312324524]},{"bufferView":1,"byteOffset":0,"count":59624,"componentType":5121,"type":"VEC4","normalized":true},{"bufferView":2,"byteOffset":0,"count":357732,"componentType":5125,"type":"SCALAR"}],"bufferViews":[{"buffer":0,"byteOffset":0,"byteLength":715488,"byteStride":12,"target":34962},{"buffer":0,"byteOffset":715488,"byteLength":238496,"byteStride":4,"target":34962},{"buffer":0,"byteOffset":953984,"byteLength":1430928,"target":34963}],"buffers":[{"byteLength":2384912,"uri":"jellyfish.bin"}]}