{
   "accessors" : [
      {
         "bufferView" : 0,
         "componentType" : 5123,
         "count" : 120,
         "max" : [ 119 ],
         "min" : [ 0 ],
         "name" : "buffer-0-accessor-indices-buffer-0-mesh-0",
         "type" : "SCALAR"
      },
      {
         "bufferView" : 2,
         "componentType" : 5126,
         "count" : 120,
         "max" : [ 32.64810180664062, 129.3860015869141, 122.6029968261719 ],
         "min" : [ -32.64810180664062, 0, 0 ],
         "name" : "buffer-0-accessor-position-buffer-0-mesh-0",
         "type" : "VEC3"
      },
      {
         "bufferView" : 2,
         "byteOffset" : 1440,
         "componentType" : 5126,
         "count" : 120,
         "max" : [ 0.8506510257720947, 0.8506510257720947, 0.8506510257720947 ],
         "min" : [ -0.8506510257720947, -0.8506510257720947, -0.8506510257720947 ],
         "name" : "buffer-0-accessor-normal-buffer-0-mesh-0",
         "type" : "VEC3"
      },
      {
         "bufferView" : 1,
         "componentType" : 5126,
         "count" : 120,
         "max" : [ 1, 0 ],
         "min" : [ 0, -1 ],
         "name" : "buffer-0-accessor-texcoord-buffer-0-mesh-0",
         "type" : "VEC2"
      },
      {
         "bufferView" : 3,
         "componentType" : 5126,
         "count" : 0,
         "max" : [ 0, 0, 0, 0 ],
         "min" : [ 0, 0, 0, 0 ],
         "name" : "buffer-0-accessor-color-buffer-0-mesh-0",
         "type" : "VEC4"
      },
      {
         "bufferView" : 0,
         "byteOffset" : 240,
         "componentType" : 5123,
         "count" : 2406,
         "max" : [ 2405 ],
         "min" : [ 0 ],
         "name" : "buffer-0-accessor-indices-buffer-0-mesh-0",
         "type" : "SCALAR"
      },
      {
         "bufferView" : 2,
         "byteOffset" : 2880,
         "componentType" : 5126,
         "count" : 2406,
         "max" : [ 112.1340026855469, 137.3289947509766, 340.177001953125 ],
         "min" : [ -112.1340026855469, -66.28299713134766, -307.5079956054688 ],
         "name" : "buffer-0-accessor-position-buffer-0-mesh-0",
         "type" : "VEC3"
      },
      {
         "bufferView" : 2,
         "byteOffset" : 31752,
         "componentType" : 5126,
         "count" : 2406,
         "max" : [ 0.993369996547699, 1, 0.9976310133934021 ],
         "min" : [ -0.993369996547699, -0.9999790191650391, -0.9002569913864136 ],
         "name" : "buffer-0-accessor-normal-buffer-0-mesh-0",
         "type" : "VEC3"
      },
      {
         "bufferView" : 1,
         "byteOffset" : 960,
         "componentType" : 5126,
         "count" : 2406,
         "max" : [ 1, 0 ],
         "min" : [ 0, -1 ],
         "name" : "buffer-0-accessor-texcoord-buffer-0-mesh-0",
         "type" : "VEC2"
      },
      {
         "bufferView" : 3,
         "componentType" : 5126,
         "count" : 0,
         "max" : [ 0, 0, 0, 0 ],
         "min" : [ 0, 0, 0, 0 ],
         "name" : "buffer-0-accessor-color-buffer-0-mesh-0",
         "type" : "VEC4"
      },
      {
         "bufferView" : 0,
         "byteOffset" : 5052,
         "componentType" : 5123,
         "count" : 2154,
         "max" : [ 2153 ],
         "min" : [ 0 ],
         "name" : "buffer-0-accessor-indices-buffer-0-mesh-0",
         "type" : "SCALAR"
      },
      {
         "bufferView" : 2,
         "byteOffset" : 60624,
         "componentType" : 5126,
         "count" : 2154,
         "max" : [ 137.6430053710938, 134.2389984130859, 285.4729919433594 ],
         "min" : [ -137.6430053710938, -97.23650360107422, -358.6759948730469 ],
         "name" : "buffer-0-accessor-position-buffer-0-mesh-0",
         "type" : "VEC3"
      },
      {
         "bufferView" : 2,
         "byteOffset" : 86472,
         "componentType" : 5126,
         "count" : 2154,
         "max" : [ 0.9778590202331543, 0.9991610050201416, 0.9659619927406311 ],
         "min" : [ -0.9778590202331543, -0.999068021774292, -0.9646940231323242 ],
         "name" : "buffer-0-accessor-normal-buffer-0-mesh-0",
         "type" : "VEC3"
      },
      {
         "bufferView" : 1,
         "byteOffset" : 20208,
         "componentType" : 5126,
         "count" : 2154,
         "max" : [ 1, 0 ],
         "min" : [ 0, -1 ],
         "name" : "buffer-0-accessor-texcoord-buffer-0-mesh-0",
         "type" : "VEC2"
      },
      {
         "bufferView" : 3,
         "componentType" : 5126,
         "count" : 0,
         "max" : [ 0, 0, 0, 0 ],
         "min" : [ 0, 0, 0, 0 ],
         "name" : "buffer-0-accessor-color-buffer-0-mesh-0",
         "type" : "VEC4"
      }
   ],
   "asset" : {
      "extras" : {
         "GOOGLE_processor_version" : 294144208
      },
      "generator" : "Obj2GltfConverter",
      "version" : "2.0"
   },
   "bufferViews" : [
      {
         "buffer" : 0,
         "byteLength" : 9360,
         "byteStride" : 0,
         "name" : "buffer-0-bufferview-ushort",
         "target" : 34963
      },
      {
         "buffer" : 0,
         "byteLength" : 37440,
         "byteOffset" : 9360,
         "byteStride" : 8,
         "name" : "buffer-0-bufferview-vec2",
         "target" : 34962
      },
      {
         "buffer" : 0,
         "byteLength" : 112320,
         "byteOffset" : 46800,
         "byteStride" : 12,
         "name" : "buffer-0-bufferview-vec3",
         "target" : 34962
      },
      {
         "buffer" : 0,
         "byteLength" : 1,
         "name" : "buffer-0-bufferview-vec4"
      }
   ],
   "buffers" : [
      {
         "byteLength" : 159120,
         "name" : "buffer-0",
         "uri" : "NOVELO_CRAYFISH.bin"
      }
   ],
   "cameras" : [
      {
         "perspective" : {
            "yfov" : 0.7853981633974483,
            "znear" : 0.1000000014901161
         },
         "type" : "perspective"
      }
   ],
   "extensions" : {
      "KHR_lights_punctual" : {
         "lights" : [
            {
               "color" : [ 1, 0.9333333333333333, 0.8666666666666667 ],
               "intensity" : 0.25,
               "name" : "headLight",
               "type" : "directional"
            },
            {
               "color" : [ 1, 0.9333333333333333, 0.8666666666666667 ],
               "intensity" : 0.324999988079071,
               "name" : "keyLight",
               "type" : "directional"
            }
         ]
      }
   },
   "extensionsUsed" : [ "GOOGLE_backgrounds", "GOOGLE_camera_settings", "KHR_lights_punctual" ],
   "extras" : {
      "GOOGLE_initial_camera_motion" : {
         "motionPath" : "FULL_ROTATION"
      },
      "GOOGLE_lighting_rig" : {
         "disableShadows" : false
      }
   },
   "materials" : [
      {
         "doubleSided" : true,
         "extras" : {
            "__iag_" : true
         },
         "name" : "Eyes",
         "pbrMetallicRoughness" : {
            "baseColorFactor" : [ 0.0064, 0.000598634089, 0.000144, 1 ],
            "metallicFactor" : 0,
            "roughnessFactor" : 0.9699476628648295
         }
      },
      {
         "doubleSided" : true,
         "extras" : {
            "__iag_" : true
         },
         "name" : "Armor",
         "pbrMetallicRoughness" : {
            "baseColorFactor" : [ 1, 0.09353382388900001, 0.0225, 1 ],
            "metallicFactor" : 0,
            "roughnessFactor" : 0.9699476628648295
         }
      },
      {
         "doubleSided" : true,
         "extras" : {
            "__iag_" : true
         },
         "name" : "Skin",
         "pbrMetallicRoughness" : {
            "baseColorFactor" : [ 1, 0.5097959999999999, 0.3136, 1 ],
            "metallicFactor" : 0,
            "roughnessFactor" : 0.9699476628648295
         }
      }
   ],
   "meshes" : [
      {
         "name" : "buffer-0-mesh-0",
         "primitives" : [
            {
               "attributes" : {
                  "NORMAL" : 2,
                  "POSITION" : 1,
                  "TEXCOORD_0" : 3
               },
               "indices" : 0,
               "material" : 0
            },
            {
               "attributes" : {
                  "NORMAL" : 7,
                  "POSITION" : 6,
                  "TEXCOORD_0" : 8
               },
               "indices" : 5,
               "material" : 1
            },
            {
               "attributes" : {
                  "NORMAL" : 12,
                  "POSITION" : 11,
                  "TEXCOORD_0" : 13
               },
               "indices" : 10,
               "material" : 2
            }
         ]
      }
   ],
   "nodes" : [
      {
         "mesh" : 0,
         "name" : "node-0"
      },
      {
         "children" : [ 2 ]
      },
      {
         "children" : [ 3 ],
         "extras" : {
            "isTransformNode" : 1
         },
         "translation" : [ -1.747132492065431, 20.38972208654925, -36.18181685356099 ]
      },
      {
         "children" : [ 0 ],
         "translation" : [ 1.747132492065431, -20.38972208654925, 36.18181685356099 ]
      },
      {
         "camera" : 0,
         "children" : [ 5 ],
         "rotation" : [
            -0.2219240542792731,
            -0.2518950318538081,
            -0.05946428056213159,
            0.9400864887853922
         ],
         "translation" : [ -452.3005884422716, 470.9699368715036, 744.4824835102601 ]
      },
      {
         "extensions" : {
            "KHR_lights_punctual" : {
               "light" : 0
            }
         },
         "extras" : {
            "isHeadLight" : 1
         },
         "name" : "headLightNode",
         "translation" : [ -406.4763618676557, 203.2381809338278, 203.2381809338278 ]
      },
      {
         "extensions" : {
            "KHR_lights_punctual" : {
               "light" : 1
            }
         },
         "extras" : {
            "isKeyLight" : 1
         },
         "name" : "keyLightNode",
         "rotation" : [ -0.7505326882858236, -0.3752663441429118, 0, 0.5439447166468927 ],
         "scale" : [ 0, 0, 410.5411254863322 ],
         "translation" : [ -410.533550951916, 833.4871840872245, -404.6148730956714 ]
      }
   ],
   "scene" : 0,
   "scenes" : [
      {
         "extensions" : {
            "GOOGLE_backgrounds" : {
               "color" : [ 0.01176470588235294, 0.6627450980392157, 0.9568627450980393 ]
            },
            "GOOGLE_camera_settings" : {}
         },
         "extras" : {
            "GOOGLE_camera_index" : {
               "cameraIndex" : 0,
               "nodeIndex" : 4
            },
            "GOOGLE_geometry_data" : {
               "stats" : {
                  "centroid" : [ 0.007574534416198731, 12.40493311455999, 5.926252390660792 ],
                  "radius" : 406.4763618676557,
                  "stdev" : 208.6537645692815
               },
               "visualCenterPoint" : [ -1.747132492065431, 20.38972208654925, -36.18181685356099 ]
            },
            "GOOGLE_hemi_light" : {
               "groundColor" : [ 0.01176470588235294, 0.6627450980392157, 0.9568627450980393 ]
            }
         },
         "name" : "scene-0",
         "nodes" : [ 1, 4, 6 ]
      }
   ]
}
