{"asset":{"generator":"3D Builder","version":"2.0"},"scene":0,"scenes":[{"nodes":[0]}],"nodes":[{"mesh":0,"matrix":[1,0,0,0,0,-1.1920928955078125E-7,-0.99999988079071045,0,0,0.99999988079071045,-1.1920928955078125E-7,0,0.0056960186921060085,0.096512101590633392,-1.3464374433169723E-6,1]}],"meshes":[{"primitives":[{"attributes":{"POSITION":0,"COLOR_0":1},"mode":4,"indices":2}]}],"accessors":[{"bufferView":0,"byteOffset":0,"count":59545,"componentType":5126,"type":"VEC3","min":[-0.1172277107834816,-0.0049873176030814648,-0.096512116491794586],"max":[0.1058356836438179,0.0049846475012600422,0.12956969439983368]},{"bufferView":1,"byteOffset":0,"count":59545,"componentType":5121,"type":"VEC4","normalized":true},{"bufferView":2,"byteOffset":0,"count":357258,"componentType":5125,"type":"SCALAR"}],"bufferViews":[{"buffer":0,"byteOffset":0,"byteLength":714540,"byteStride":12,"target":34962},{"buffer":0,"byteOffset":714540,"byteLength":238180,"byteStride":4,"target":34962},{"buffer":0,"byteOffset":952720,"byteLength":1429032,"target":34963}],"buffers":[{"byteLength":2381752,"uri":"seaweed.bin"}]}