{"asset":{"generator":"3D Builder","version":"2.0"},"scene":0,"scenes":[{"nodes":[0]}],"nodes":[{"mesh":0,"matrix":[1,0,0,0,0,-1.1920928955078125E-7,-0.99999988079071045,0,0,0.99999988079071045,-1.1920928955078125E-7,0,0.0050601926632225513,0.11952497810125351,6.827398806308338E-7,1]}],"meshes":[{"primitives":[{"attributes":{"POSITION":0,"COLOR_0":1},"mode":4,"indices":2}]}],"accessors":[{"bufferView":0,"byteOffset":0,"count":60412,"componentType":5126,"type":"VEC3","min":[-0.14804956316947937,-0.0049861418083310127,-0.1195249930024147],"max":[0.13792917132377625,0.0049875359982252121,0.13974247872829437]},{"bufferView":1,"byteOffset":0,"count":60412,"componentType":5121,"type":"VEC4","normalized":true},{"bufferView":2,"byteOffset":0,"count":362460,"componentType":5125,"type":"SCALAR"}],"bufferViews":[{"buffer":0,"byteOffset":0,"byteLength":724944,"byteStride":12,"target":34962},{"buffer":0,"byteOffset":724944,"byteLength":241648,"byteStride":4,"target":34962},{"buffer":0,"byteOffset":966592,"byteLength":1449840,"target":34963}],"buffers":[{"byteLength":2416432,"uri":"starfish.bin"}]}