{"asset":{"generator":"3D Builder","version":"2.0"},"scene":0,"scenes":[{"nodes":[0]}],"nodes":[{"mesh":0,"matrix":[1,0,0,0,0,-1.1920928955078125E-7,-0.99999988079071045,0,0,0.99999988079071045,-1.1920928955078125E-7,0,0.014073178172111511,0.12926313281059265,1.0521201829760685E-6,1]}],"meshes":[{"primitives":[{"attributes":{"POSITION":0,"COLOR_0":1},"mode":4,"indices":2}]}],"accessors":[{"bufferView":0,"byteOffset":0,"count":56690,"componentType":5126,"type":"VEC3","min":[-0.15813711285591125,-0.0049889604561030865,-0.12926314771175385],"max":[0.12999075651168823,0.0049910955131053925,0.12253552675247192]},{"bufferView":1,"byteOffset":0,"count":56690,"componentType":5121,"type":"VEC4","normalized":true},{"bufferView":2,"byteOffset":0,"count":340128,"componentType":5125,"type":"SCALAR"}],"bufferViews":[{"buffer":0,"byteOffset":0,"byteLength":680280,"byteStride":12,"target":34962},{"buffer":0,"byteOffset":680280,"byteLength":226760,"byteStride":4,"target":34962},{"buffer":0,"byteOffset":907040,"byteLength":1360512,"target":34963}],"buffers":[{"byteLength":2267552,"uri":"turtle.bin"}]}